<svg width="752" height="897" viewBox="0 0 752 897" fill="none" xmlns="http://www.w3.org/2000/svg">
<g filter="url(#filter0_i_180_266)">
<path d="M60.8589 3L3 62.1079V165.236H29.0839V676.479L3 703.126V774.346L33.3522 805.354H85.7572L114.856 781.545H192.227L216.414 805.354H452.592H533.215L549.339 822.242V866.815L574.475 894.5H693.987L710.111 874.567H737.618L749 859.548V836.292V637.651H704.894V133.752H749V89.2394V39.3368H693.038L670.748 15.0434H477.727L458.283 39.3368H216.414L180.845 3H60.8589Z" fill="#180B1A"/>
</g>
<path d="M60.8589 3L3 62.1079V165.236H29.0839V676.479L3 703.126V774.346L33.3522 805.354H85.7572L114.856 781.545H192.227L216.414 805.354H452.592H533.215L549.339 822.242V866.815L574.475 894.5H693.987L710.111 874.567H737.618L749 859.548V836.292V637.651H704.894V133.752H749V89.2394V39.3368H693.038L670.748 15.0434H477.727L458.283 39.3368H216.414L180.845 3H60.8589Z" stroke="white" stroke-opacity="0.75" stroke-width="5"/>
<rect width="4.37526" height="4.37526" transform="matrix(0.696605 -0.717455 0.696605 0.717455 634.802 175.969)" fill="#180B1A"/>
<rect width="4.37526" height="4.37526" transform="matrix(0.696605 -0.717455 0.696605 0.717455 634.802 175.969)" fill="#180B1A"/>
<rect width="4.37526" height="4.37526" transform="matrix(0.696605 -0.717455 0.696605 0.717455 634.802 175.969)" fill="#180B1A"/>
<rect width="4.37526" height="4.37526" transform="matrix(0.696605 -0.717455 0.696605 0.717455 68 113.438)" fill="#180B1A"/>
<rect width="4.37526" height="4.37526" transform="matrix(0.696605 -0.717455 0.696605 0.717455 68 113.438)" fill="#180B1A"/>
<rect width="4.37526" height="4.37526" transform="matrix(0.696605 -0.717455 0.696605 0.717455 68 113.438)" fill="#180B1A"/>
<rect width="4.37526" height="4.37526" transform="matrix(0.696605 -0.717455 0.696605 0.717455 81.792 355.824)" fill="#180B1A"/>
<rect width="4.37526" height="4.37526" transform="matrix(0.696605 -0.717455 0.696605 0.717455 81.792 355.824)" fill="#180B1A"/>
<rect width="4.37526" height="4.37526" transform="matrix(0.696605 -0.717455 0.696605 0.717455 81.792 355.824)" fill="#180B1A"/>
<rect width="4.37526" height="4.37526" transform="matrix(0.696605 -0.717455 0.696605 0.717455 398.599 107.604)" fill="#180B1A"/>
<rect width="4.37526" height="4.37526" transform="matrix(0.696605 -0.717455 0.696605 0.717455 398.599 107.604)" fill="#180B1A"/>
<rect width="4.37526" height="4.37526" transform="matrix(0.696605 -0.717455 0.696605 0.717455 398.599 107.604)" fill="#180B1A"/>
<rect width="4.37526" height="4.37526" transform="matrix(0.696605 -0.717455 0.696605 0.717455 182.653 425.965)" fill="#180B1A"/>
<rect width="4.37526" height="4.37526" transform="matrix(0.696605 -0.717455 0.696605 0.717455 182.653 425.965)" fill="#180B1A"/>
<rect width="4.37526" height="4.37526" transform="matrix(0.696605 -0.717455 0.696605 0.717455 182.653 425.965)" fill="#180B1A"/>
<rect width="4.37526" height="4.37526" transform="matrix(0.696605 -0.717455 0.696605 0.717455 425 601.139)" fill="#180B1A"/>
<rect width="4.37526" height="4.37526" transform="matrix(0.696605 -0.717455 0.696605 0.717455 425 601.139)" fill="#180B1A"/>
<rect width="4.37526" height="4.37526" transform="matrix(0.696605 -0.717455 0.696605 0.717455 425 601.139)" fill="#180B1A"/>
<rect width="4.37526" height="4.37526" transform="matrix(0.696605 -0.717455 0.696605 0.717455 539 735.139)" fill="#180B1A"/>
<rect width="4.37526" height="4.37526" transform="matrix(0.696605 -0.717455 0.696605 0.717455 539 735.139)" fill="#180B1A"/>
<rect width="4.37526" height="4.37526" transform="matrix(0.696605 -0.717455 0.696605 0.717455 539 735.139)" fill="#180B1A"/>
<rect width="4.37526" height="4.37526" transform="matrix(0.696605 -0.717455 0.696605 0.717455 684 695.139)" fill="#180B1A"/>
<rect width="4.37526" height="4.37526" transform="matrix(0.696605 -0.717455 0.696605 0.717455 684 695.139)" fill="#180B1A"/>
<rect width="4.37526" height="4.37526" transform="matrix(0.696605 -0.717455 0.696605 0.717455 684 695.139)" fill="#180B1A"/>
<rect width="4.37526" height="4.37526" transform="matrix(0.696605 -0.717455 0.696605 0.717455 111 569.139)" fill="#180B1A"/>
<rect width="4.37526" height="4.37526" transform="matrix(0.696605 -0.717455 0.696605 0.717455 111 569.139)" fill="#180B1A"/>
<rect width="4.37526" height="4.37526" transform="matrix(0.696605 -0.717455 0.696605 0.717455 111 569.139)" fill="#180B1A"/>
<rect width="4.37526" height="4.37526" transform="matrix(0.696605 -0.717455 0.696605 0.717455 677.904 429.009)" fill="#180B1A"/>
<rect width="4.37526" height="4.37526" transform="matrix(0.696605 -0.717455 0.696605 0.717455 677.904 429.009)" fill="#180B1A"/>
<rect width="4.37526" height="4.37526" transform="matrix(0.696605 -0.717455 0.696605 0.717455 677.904 429.009)" fill="#180B1A"/>
<rect width="4.37526" height="4.37526" transform="matrix(0.696605 -0.717455 0.696605 0.717455 671.439 276.804)" fill="#180B1A"/>
<rect width="4.37526" height="4.37526" transform="matrix(0.696605 -0.717455 0.696605 0.717455 671.439 276.804)" fill="#180B1A"/>
<rect width="4.37526" height="4.37526" transform="matrix(0.696605 -0.717455 0.696605 0.717455 671.439 276.804)" fill="#180B1A"/>
<path d="M327.047 149.809L333.143 143.531L339.239 149.809L333.143 156.087L327.047 149.809Z" fill="#FF0057"/>
<path d="M327.047 149.809L333.143 143.531L339.239 149.809L333.143 156.087L327.047 149.809Z" fill="#FF0057"/>
<path d="M327.047 149.809L333.143 143.531L339.239 149.809L333.143 156.087L327.047 149.809Z" fill="#FF0057"/>
<rect width="8.75053" height="8.75053" transform="matrix(0.696605 -0.717455 0.696605 0.717455 307.22 404.624)" fill="#FF0057"/>
<rect width="8.75053" height="8.75053" transform="matrix(0.696605 -0.717455 0.696605 0.717455 307.22 404.624)" fill="#FF0057"/>
<rect width="8.75053" height="8.75053" transform="matrix(0.696605 -0.717455 0.696605 0.717455 307.22 404.624)" fill="#FF0057"/>
<rect width="8.75053" height="8.75053" transform="matrix(0.696605 -0.717455 0.696605 0.717455 563 633.278)" fill="#FF0057"/>
<rect width="8.75053" height="8.75053" transform="matrix(0.696605 -0.717455 0.696605 0.717455 563 633.278)" fill="#FF0057"/>
<rect width="8.75053" height="8.75053" transform="matrix(0.696605 -0.717455 0.696605 0.717455 563 633.278)" fill="#FF0057"/>
<rect width="8.75053" height="8.75053" transform="matrix(0.696605 -0.717455 0.696605 0.717455 301 741.278)" fill="#FF0057"/>
<rect width="8.75053" height="8.75053" transform="matrix(0.696605 -0.717455 0.696605 0.717455 301 741.278)" fill="#FF0057"/>
<rect width="8.75053" height="8.75053" transform="matrix(0.696605 -0.717455 0.696605 0.717455 301 741.278)" fill="#FF0057"/>
<rect width="8.75053" height="8.75053" transform="matrix(0.696605 -0.717455 0.696605 0.717455 218 591.278)" fill="#FF0057"/>
<rect width="8.75053" height="8.75053" transform="matrix(0.696605 -0.717455 0.696605 0.717455 218 591.278)" fill="#FF0057"/>
<rect width="8.75053" height="8.75053" transform="matrix(0.696605 -0.717455 0.696605 0.717455 218 591.278)" fill="#FF0057"/>
<rect width="8.75053" height="8.75053" transform="matrix(0.696605 -0.717455 0.696605 0.717455 82 748.278)" fill="#FF0057"/>
<rect width="8.75053" height="8.75053" transform="matrix(0.696605 -0.717455 0.696605 0.717455 82 748.278)" fill="#FF0057"/>
<rect width="8.75053" height="8.75053" transform="matrix(0.696605 -0.717455 0.696605 0.717455 82 748.278)" fill="#FF0057"/>
<rect width="8.75053" height="8.75053" transform="matrix(0.696605 -0.717455 0.696605 0.717455 539.113 394.858)" fill="#FF0057"/>
<rect width="8.75053" height="8.75053" transform="matrix(0.696605 -0.717455 0.696605 0.717455 539.113 394.858)" fill="#FF0057"/>
<rect width="8.75053" height="8.75053" transform="matrix(0.696605 -0.717455 0.696605 0.717455 539.113 394.858)" fill="#FF0057"/>
<rect width="8.75053" height="8.75053" transform="matrix(0.696605 -0.717455 0.696605 0.717455 174.033 87.2781)" fill="#FF0057"/>
<rect width="8.75053" height="8.75053" transform="matrix(0.696605 -0.717455 0.696605 0.717455 174.033 87.2781)" fill="#FF0057"/>
<rect width="8.75053" height="8.75053" transform="matrix(0.696605 -0.717455 0.696605 0.717455 174.033 87.2781)" fill="#FF0057"/>
<rect width="8.75053" height="8.75053" transform="matrix(0.696605 -0.717455 0.696605 0.717455 87.8267 236.438)" fill="#FF0057"/>
<rect width="8.75053" height="8.75053" transform="matrix(0.696605 -0.717455 0.696605 0.717455 87.8267 236.438)" fill="#FF0057"/>
<rect width="8.75053" height="8.75053" transform="matrix(0.696605 -0.717455 0.696605 0.717455 87.8267 236.438)" fill="#FF0057"/>
<rect width="8.75053" height="8.75053" transform="matrix(0.696605 -0.717455 0.696605 0.717455 653.335 350.084)" fill="#FF0057"/>
<rect width="8.75053" height="8.75053" transform="matrix(0.696605 -0.717455 0.696605 0.717455 653.335 350.084)" fill="#FF0057"/>
<rect width="8.75053" height="8.75053" transform="matrix(0.696605 -0.717455 0.696605 0.717455 653.335 350.084)" fill="#FF0057"/>
<rect width="8.75053" height="8.75053" transform="matrix(0.696605 -0.717455 0.696605 0.717455 610.664 137.379)" fill="#FF0057"/>
<rect width="8.75053" height="8.75053" transform="matrix(0.696605 -0.717455 0.696605 0.717455 610.664 137.379)" fill="#FF0057"/>
<rect width="8.75053" height="8.75053" transform="matrix(0.696605 -0.717455 0.696605 0.717455 610.664 137.379)" fill="#FF0057"/>
<g filter="url(#filter1_d_180_266)">
<rect x="624" y="840.215" width="18.2794" height="60.3439" transform="rotate(-90 624 840.215)" fill="#FF0057"/>
<rect x="645.298" y="800" width="17.7482" height="62.1501" fill="#FF0057"/>
</g>
<defs>
<filter id="filter0_i_180_266" x="0.5" y="0.5" width="755" height="900.5" filterUnits="userSpaceOnUse" color-interpolation-filters="sRGB">
<feFlood flood-opacity="0" result="BackgroundImageFix"/>
<feBlend mode="normal" in="SourceGraphic" in2="BackgroundImageFix" result="shape"/>
<feColorMatrix in="SourceAlpha" type="matrix" values="0 0 0 0 0 0 0 0 0 0 0 0 0 0 0 0 0 0 127 0" result="hardAlpha"/>
<feOffset dx="60" dy="50"/>
<feGaussianBlur stdDeviation="2"/>
<feComposite in2="hardAlpha" operator="arithmetic" k2="-1" k3="1"/>
<feColorMatrix type="matrix" values="0 0 0 0 0 0 0 0 0 0 0 0 0 0 0 0 0 0 0.25 0"/>
<feBlend mode="normal" in2="shape" result="effect1_innerShadow_180_266"/>
</filter>
<filter id="filter1_d_180_266" x="624" y="800" width="75.3438" height="77.1501" filterUnits="userSpaceOnUse" color-interpolation-filters="sRGB">
<feFlood flood-opacity="0" result="BackgroundImageFix"/>
<feColorMatrix in="SourceAlpha" type="matrix" values="0 0 0 0 0 0 0 0 0 0 0 0 0 0 0 0 0 0 127 0" result="hardAlpha"/>
<feOffset dx="10" dy="10"/>
<feGaussianBlur stdDeviation="2.5"/>
<feComposite in2="hardAlpha" operator="out"/>
<feColorMatrix type="matrix" values="0 0 0 0 0 0 0 0 0 0 0 0 0 0 0 0 0 0 0.25 0"/>
<feBlend mode="normal" in2="BackgroundImageFix" result="effect1_dropShadow_180_266"/>
<feBlend mode="normal" in="SourceGraphic" in2="effect1_dropShadow_180_266" result="shape"/>
</filter>
</defs>
</svg>
